<svg width="150" height="18" viewBox="0 0 150 18" fill="none" xmlns="http://www.w3.org/2000/svg">
<g clip-path="url(#clip0)">
<path d="M6.54344 17.6851C5.27301 17.6851 4.04086 17.5167 2.84697 17.18C2.15879 16.9744 1.5489 16.735 1.01728 16.4616C0.391375 16.1397 0.20454 15.3717 0.493801 14.7301V14.7301C0.88985 13.8515 2.00401 13.5613 2.89211 13.9353C3.15592 14.0464 3.43169 14.1484 3.71943 14.2412C4.66842 14.5473 5.61741 14.7004 6.56639 14.7004C7.62253 14.7004 8.40315 14.5473 8.90826 14.2412C9.41336 13.9198 9.66592 13.4988 9.66592 12.9784C9.66592 12.5958 9.51285 12.282 9.20673 12.0371C8.91591 11.7769 8.53325 11.5702 8.05876 11.4172C7.59957 11.2641 6.97201 11.0958 6.17608 10.9121C4.95158 10.6213 3.94902 10.3304 3.1684 10.0396C2.38778 9.7488 1.7143 9.28196 1.14797 8.63909C0.596945 7.99623 0.321432 7.13908 0.321432 6.06764C0.321432 5.13396 0.573986 4.29211 1.07909 3.5421C1.5842 2.77679 2.34186 2.17219 3.35208 1.72831C4.3776 1.28443 5.62506 1.06248 7.09446 1.06248C8.11998 1.06248 9.12254 1.18493 10.1021 1.42983C10.6085 1.55642 11.0821 1.71164 11.5231 1.89548C12.2138 2.18351 12.4679 2.99203 12.186 3.68538V3.68538C11.836 4.54645 10.8109 4.88871 9.93773 4.57011C8.98232 4.22151 8.02691 4.04721 7.0715 4.04721C6.03067 4.04721 5.25771 4.21558 4.7526 4.55232C4.2628 4.88905 4.0179 5.33294 4.0179 5.88396C4.0179 6.43499 4.30107 6.84826 4.8674 7.12377C5.44904 7.38398 6.32915 7.64419 7.50773 7.90439C8.73223 8.19521 9.7348 8.48603 10.5154 8.77685C11.296 9.06767 11.9619 9.52686 12.5129 10.1544C13.0792 10.782 13.3624 11.6315 13.3624 12.7029C13.3624 13.6213 13.1022 14.4631 12.5818 15.2284C12.0767 15.9785 11.3113 16.5754 10.2858 17.0193C9.2603 17.4632 8.01284 17.6851 6.54344 17.6851Z" fill="white"/>
<path d="M34.5469 1.338C35.5613 1.338 36.3837 2.16034 36.3837 3.17475V15.4096C36.3837 16.5142 35.4883 17.4096 34.3837 17.4096H34.2757C33.677 17.4096 33.1099 17.1415 32.73 16.6788L25.3172 7.65184V15.5728C25.3172 16.5873 24.4949 17.4096 23.4805 17.4096V17.4096C22.4661 17.4096 21.6437 16.5873 21.6437 15.5728V3.338C21.6437 2.23343 22.5392 1.338 23.6437 1.338H23.773C24.3726 1.338 24.9406 1.60701 25.3204 2.07093L32.7102 11.0958V3.17475C32.7102 2.16034 33.5325 1.338 34.5469 1.338V1.338Z" fill="white"/>
<path d="M76.2009 1.338C77.6244 1.338 78.8565 1.57524 79.8974 2.04974C80.9535 2.52423 81.7647 3.19771 82.331 4.07017C82.8974 4.94263 83.1805 5.9758 83.1805 7.16969C83.1805 8.34828 82.8974 9.38145 82.331 10.2692C81.7647 11.1417 80.9535 11.8151 79.8974 12.2896C78.8565 12.7488 77.6244 12.9784 76.2009 12.9784H72.9636V15.5499C72.9636 16.577 72.131 17.4096 71.1039 17.4096V17.4096C70.0768 17.4096 69.2442 16.577 69.2442 15.5499V3.338C69.2442 2.23343 70.1396 1.338 71.2442 1.338H76.2009ZM75.9942 9.94778C77.1116 9.94778 77.9611 9.71053 78.5427 9.23604C79.1244 8.74624 79.4152 8.05746 79.4152 7.16969C79.4152 6.26662 79.1244 5.57784 78.5427 5.10334C77.9611 4.61354 77.1116 4.36864 75.9942 4.36864H72.9636V9.94778H75.9942Z" fill="white"/>
<path d="M99.4914 17.6851C97.8537 17.6851 96.3689 17.3331 95.0373 16.629C93.721 15.9096 92.6801 14.9223 91.9148 13.6672C91.1648 12.3968 90.7898 10.9656 90.7898 9.3738C90.7898 7.78194 91.1648 6.35846 91.9148 5.10334C92.6801 3.83292 93.721 2.84567 95.0373 2.14158C96.3689 1.42218 97.8613 1.06248 99.5144 1.06248C100.907 1.06248 102.162 1.30739 103.28 1.79719C103.915 2.07205 104.493 2.41439 105.013 2.82422C105.699 3.36453 105.623 4.37405 104.982 4.96607V4.96607C104.302 5.59382 103.251 5.49951 102.469 5.00505C101.652 4.48894 100.729 4.23089 99.6981 4.23089C98.7032 4.23089 97.8154 4.45283 97.0348 4.89671C96.2541 5.32528 95.6419 5.92988 95.198 6.7105C94.7694 7.49112 94.5552 8.37889 94.5552 9.3738C94.5552 10.3687 94.7694 11.2565 95.198 12.0371C95.6419 12.8177 96.2541 13.43 97.0348 13.8738C97.8154 14.3024 98.7032 14.5167 99.6981 14.5167C100.728 14.5167 101.651 14.256 102.467 13.7344C103.25 13.2336 104.307 13.1355 104.99 13.7663V13.7663C105.628 14.3553 105.708 15.3586 105.031 15.902C104.506 16.323 103.923 16.6724 103.28 16.9504C102.147 17.4402 100.884 17.6851 99.4914 17.6851Z" fill="white"/>
<path d="M121.384 17.6851C119.088 17.6851 117.297 17.0499 116.012 15.7795C114.741 14.5091 114.106 12.6953 114.106 10.3381V3.19771C114.106 2.17062 114.939 1.338 115.966 1.338V1.338C116.993 1.338 117.825 2.17062 117.825 3.19771V10.2003C117.825 13.0779 119.019 14.5167 121.407 14.5167C122.57 14.5167 123.458 14.1723 124.07 13.4835C124.683 12.7794 124.989 11.685 124.989 10.2003V3.17475C124.989 2.16034 125.811 1.338 126.826 1.338V1.338C127.84 1.338 128.662 2.16034 128.662 3.17475V10.3381C128.662 12.6953 128.019 14.5091 126.734 15.7795C125.463 17.0499 123.68 17.6851 121.384 17.6851Z" fill="white"/>
<path d="M141.138 4.36864H137.51C136.673 4.36864 135.995 3.69021 135.995 2.85332V2.85332C135.995 2.01643 136.673 1.338 137.51 1.338H148.485C149.322 1.338 150 2.01643 150 2.85332V2.85332C150 3.69021 149.322 4.36864 148.485 4.36864H144.857V15.5499C144.857 16.577 144.024 17.4096 142.997 17.4096V17.4096C141.97 17.4096 141.138 16.577 141.138 15.5499V4.36864Z" fill="white"/>
<path fill-rule="evenodd" clip-rule="evenodd" d="M46.6482 0.218514C47.1502 -0.0719742 47.7689 -0.0728932 48.2718 0.216102L61.1865 7.63833C61.6982 7.93242 62.0102 8.48086 62.0016 9.07101C61.9929 9.66117 61.665 10.2002 61.1449 10.4792L48.2302 17.4066C47.7266 17.6768 47.1181 17.6625 46.6277 17.3691C46.1373 17.0756 45.8371 16.5461 45.8371 15.9746V1.625C45.8371 1.04502 46.1462 0.509002 46.6482 0.218514ZM49.0871 4.43316V13.259L57.0303 8.99823L49.0871 4.43316Z" fill="#FFE733"/>
</g>
<defs>
<clipPath id="clip0">
<rect width="150" height="18" fill="white"/>
</clipPath>
</defs>
</svg>
