<svg width="150" height="17" viewBox="0 0 150 17" fill="none" xmlns="http://www.w3.org/2000/svg">
<g clip-path="url(#clip0)">
<path d="M6.54344 16.6226C5.27301 16.6226 4.04086 16.4543 2.84697 16.1175C2.15879 15.912 1.5489 15.6725 1.01728 15.3991C0.391375 15.0772 0.20454 14.3092 0.493801 13.6676C0.88985 12.7891 2.00401 12.4988 2.89211 12.8728C3.15592 12.9839 3.43169 13.0859 3.71943 13.1787C4.66842 13.4848 5.61741 13.6379 6.56639 13.6379C7.62253 13.6379 8.40315 13.4848 8.90826 13.1787C9.41336 12.8573 9.66592 12.4364 9.66592 11.9159C9.66592 11.5333 9.51285 11.2195 9.20673 10.9746C8.91591 10.7144 8.53325 10.5078 8.05876 10.3547C7.59957 10.2016 6.97201 10.0333 6.17608 9.84959C4.95158 9.55877 3.94902 9.26795 3.1684 8.97713C2.38778 8.68632 1.7143 8.21947 1.14797 7.57661C0.596945 6.93375 0.321432 6.07659 0.321432 5.00515C0.321432 4.07147 0.573986 3.22963 1.07909 2.47962C1.5842 1.7143 2.34186 1.1097 3.35208 0.665823C4.3776 0.221941 5.62506 0 7.09446 0C8.11998 0 9.12254 0.12245 10.1021 0.36735C10.6085 0.493938 11.0821 0.649153 11.5231 0.832995C12.2138 1.12102 12.4679 1.92955 12.186 2.62289C11.836 3.48396 10.8109 3.82623 9.93773 3.50763C8.98232 3.15903 8.02691 2.98472 7.0715 2.98472C6.03067 2.98472 5.25771 3.15309 4.7526 3.48983C4.2628 3.82657 4.0179 4.27045 4.0179 4.82148C4.0179 5.3725 4.30107 5.78577 4.8674 6.06129C5.44904 6.32149 6.32915 6.5817 7.50773 6.84191C8.73223 7.13273 9.7348 7.42355 10.5154 7.71437C11.296 8.00519 11.9619 8.46437 12.5129 9.09193C13.0792 9.71949 13.3624 10.569 13.3624 11.6404C13.3624 12.5588 13.1022 13.4007 12.5818 14.166C12.0767 14.916 11.3113 15.5129 10.2858 15.9568C9.2603 16.4007 8.01284 16.6226 6.54344 16.6226Z" fill="#201F1D"/>
<path d="M34.5469 0.275512C35.5613 0.275512 36.3837 1.09785 36.3837 2.11226V14.3471C36.3837 15.4517 35.4883 16.3471 34.3837 16.3471H34.2757C33.677 16.3471 33.1099 16.079 32.73 15.6164L25.3172 6.58935V14.5104C25.3172 15.5248 24.4949 16.3471 23.4805 16.3471C22.4661 16.3471 21.6437 15.5248 21.6437 14.5104V2.27551C21.6437 1.17094 22.5392 0.275512 23.6437 0.275512H23.773C24.3726 0.275512 24.9406 0.544525 25.3204 1.00844L32.7102 10.0333V2.11227C32.7102 1.09786 33.5325 0.275512 34.5469 0.275512Z" fill="#201F1D"/>
<path d="M76.2009 0.275512C77.6244 0.275512 78.8565 0.51276 79.8974 0.987255C80.9535 1.46175 81.7647 2.13523 82.331 3.00768C82.8974 3.88014 83.1805 4.91332 83.1805 6.10721C83.1805 7.28579 82.8974 8.31896 82.331 9.20673C81.7647 10.0792 80.9535 10.7527 79.8974 11.2272C78.8565 11.6863 77.6244 11.9159 76.2009 11.9159H72.9636V14.4874C72.9636 15.5145 72.131 16.3471 71.1039 16.3471C70.0768 16.3471 69.2442 15.5145 69.2442 14.4874V2.27551C69.2442 1.17094 70.1396 0.275512 71.2442 0.275512H76.2009ZM75.9942 8.8853C77.1116 8.8853 77.9611 8.64805 78.5427 8.17355C79.1244 7.68375 79.4152 6.99497 79.4152 6.10721C79.4152 5.20414 79.1244 4.51535 78.5427 4.04086C77.9611 3.55106 77.1116 3.30616 75.9942 3.30616H72.9636V8.8853H75.9942Z" fill="#201F1D"/>
<path d="M99.4914 16.6226C97.8537 16.6226 96.3689 16.2706 95.0373 15.5665C93.721 14.8471 92.6801 13.8598 91.9148 12.6047C91.1648 11.3343 90.7898 9.90316 90.7898 8.31131C90.7898 6.71946 91.1648 5.29597 91.9148 4.04086C92.6801 2.77044 93.721 1.78318 95.0373 1.07909C96.3689 0.359698 97.8613 0 99.5144 0C100.907 0 102.162 0.244901 103.28 0.734702C103.915 1.00956 104.493 1.35191 105.013 1.76174C105.699 2.30205 105.623 3.31157 104.982 3.90358C104.302 4.53134 103.251 4.43702 102.469 3.94256C101.652 3.42645 100.729 3.1684 99.6981 3.1684C98.7031 3.1684 97.8154 3.39034 97.0348 3.83422C96.2542 4.2628 95.6419 4.8674 95.198 5.64802C94.7694 6.42864 94.5552 7.3164 94.5552 8.31131C94.5552 9.30622 94.7694 10.194 95.198 10.9746C95.6419 11.7552 96.2542 12.3675 97.0348 12.8114C97.8154 13.2399 98.7031 13.4542 99.6981 13.4542C100.728 13.4542 101.651 13.1935 102.467 12.672C103.25 12.1711 104.307 12.073 104.99 12.7038C105.629 13.2928 105.708 14.2961 105.031 14.8396C104.506 15.2605 103.923 15.61 103.28 15.8879C102.147 16.3777 100.884 16.6226 99.4914 16.6226Z" fill="#201F1D"/>
<path d="M121.384 16.6226C119.088 16.6226 117.297 15.9874 116.012 14.717C114.741 13.4466 114.106 11.6328 114.106 9.27561V2.13522C114.106 1.10813 114.939 0.275512 115.966 0.275512C116.993 0.275512 117.825 1.10813 117.825 2.13522V9.13785C117.825 12.0154 119.019 13.4542 121.407 13.4542C122.57 13.4542 123.458 13.1098 124.07 12.421C124.683 11.717 124.989 10.6226 124.989 9.13785V2.11226C124.989 1.09785 125.811 0.275512 126.826 0.275512C127.84 0.275512 128.662 1.09785 128.662 2.11226V9.27561C128.662 11.6328 128.019 13.4466 126.734 14.717C125.463 15.9874 123.68 16.6226 121.384 16.6226Z" fill="#201F1D"/>
<path d="M141.138 3.30616H137.51C136.673 3.30616 135.995 2.62772 135.995 1.79083C135.995 0.953945 136.673 0.275512 137.51 0.275512H148.485C149.322 0.275512 150 0.953945 150 1.79083C150 2.62772 149.322 3.30616 148.485 3.30616H144.857V14.4874C144.857 15.5145 144.024 16.3471 142.997 16.3471C141.97 16.3471 141.138 15.5145 141.138 14.4874V3.30616Z" fill="#201F1D"/>
<path fill-rule="evenodd" clip-rule="evenodd" d="M46.6482 -0.843978C47.1502 -1.13447 47.7689 -1.13539 48.2718 -0.84639L61.1865 6.57584C61.6982 6.86993 62.0102 7.41837 62.0016 8.00852C61.9929 8.59867 61.665 9.13774 61.1449 9.41673L48.2302 16.3441C47.7266 16.6143 47.1181 16.6 46.6277 16.3066C46.1373 16.0131 45.8371 15.4836 45.8371 14.9121V0.562508C45.8371 -0.0174741 46.1462 -0.55349 46.6482 -0.843978ZM49.0871 3.37066V12.1965L57.0303 7.93574L49.0871 3.37066Z" fill="#FFE733"/>
</g>
<defs>
<clipPath id="clip0">
<rect width="150" height="17" fill="white"/>
</clipPath>
</defs>
</svg>
